<svg id="Component_29_1" data-name="Component 29 – 1" xmlns="http://www.w3.org/2000/svg" width="3459.43" height="4642.469" viewBox="0 0 3459.43 4642.469">
  <path id="Path_3441" data-name="Path 3441" d="M561.76,0C802,0,870,335.742,870,572.672S610.79,773.4,370.546,773.4,0,809.6,0,572.672,321.516,0,561.76,0Z" transform="matrix(0.719, -0.695, 0.695, 0.719, 165.162, 604.353)" fill="#b9c7c4"/>
  <g id="Component_24_1" data-name="Component 24 – 1" transform="translate(0 222.674)">
    <g id="Component_23_1" data-name="Component 23 – 1">
      <path id="Path_3431" data-name="Path 3431" d="M693.12,0C832.1,0,503.282,260.161,503.282,457.453s227.061,511.156,88.084,511.156S0,654.746,0,457.453,554.142,0,693.12,0Z" transform="translate(2594.689 3777.096) rotate(120)" fill="#213128"/>
      <g id="Path_3426" data-name="Path 3426" transform="translate(910.301 133.99)" fill="#bf6e1c">
        <path d="M 268.021240234375 665.4746704101562 C 249.72705078125 665.4746704101562 229.9694061279297 663.855224609375 209.2970428466797 660.6614379882812 C 188.5987701416016 657.463623046875 167.2686767578125 652.7312622070312 145.8994140625 646.595947265625 C 124.0885925292969 640.3338623046875 102.4858627319336 632.6793212890625 81.69132232666016 623.8448486328125 C 60.12250137329102 614.6815185546875 39.54550170898438 604.2966918945312 20.53195571899414 592.9789428710938 C 0.5851383805274963 581.105712890625 -17.66840744018555 568.1841430664062 -33.7216796875 554.5733032226562 C -50.67440795898438 540.1997680664062 -65.30831909179688 524.9369506835938 -77.21685791015625 509.2089538574219 C -83.42067718505859 501.0153198242188 -88.976318359375 492.5675048828125 -93.72931671142578 484.1001586914062 C -98.62295532226562 475.38232421875 -102.7897720336914 466.4227905273438 -106.1141357421875 457.4703369140625 C -109.5367736816406 448.2529602050781 -112.1544952392578 438.8051452636719 -113.8947677612305 429.38916015625 C -115.6863174438477 419.69580078125 -116.5946807861328 409.7818908691406 -116.5946807861328 399.9228820800781 C -116.5946807861328 390.07861328125 -115.4274978637695 379.668701171875 -113.1255874633789 368.9823303222656 C -110.8928604125977 358.6172485351562 -107.5412216186523 347.7523193359375 -103.1638641357422 336.6894226074219 C -94.76103973388672 315.4535217285156 -82.41286468505859 292.984619140625 -66.46204376220703 269.9067993164062 C -36.65404510498047 226.7800598144531 5.337047576904297 182.0459747314453 54.97159194946289 140.5406951904297 C 78.62659454345703 120.7600631713867 103.4557723999023 102.1877899169922 128.7695007324219 85.33979034423828 C 154.1063232421875 68.47633361816406 179.4150543212891 53.68242263793945 203.9926910400391 41.3687858581543 C 255.6460418701172 15.48987770080566 301.5599670410156 1.811059951782227 336.7705993652344 1.811059951782227 C 354.8478698730469 1.811059951782227 372.9710388183594 0.8548780679702759 390.4974975585938 -0.06984918564558029 C 407.7172241210938 -0.9783037304878235 423.9820556640625 -1.836485505104065 439.9296875 -1.836485505104065 C 454.1042175292969 -1.836485505104065 466.2890625 -1.130667328834534 477.1805114746094 0.3211508095264435 C 489.8794250488281 2.013968944549561 500.9764099121094 4.716423511505127 511.1056823730469 8.583060264587402 C 534.1131591796875 17.3656063079834 551.9480590820312 32.27824020385742 565.6297607421875 54.17324066162109 C 572.4402465820312 65.07205963134766 578.5241088867188 81.35451507568359 583.7125854492188 102.5684204101562 C 588.2093505859375 120.9538803100586 592.045166015625 143.0572357177734 595.1134033203125 168.2646026611328 C 597.7103271484375 189.5994262695312 599.7042236328125 212.6145172119141 601.0398559570312 236.6706085205078 C 602.1345825195312 256.3886108398438 602.7374877929688 276.4775085449219 602.7374877929688 293.2367858886719 C 602.7374877929688 312.8441467285156 599.9274291992188 333.7650451660156 594.3854370117188 355.4184265136719 C 589.07177734375 376.1793212890625 581.2382202148438 397.6661376953125 571.1024169921875 419.2821655273438 C 551.5350341796875 461.0121459960938 523.6438598632812 502.6629638671875 490.4440612792969 539.7319946289062 C 474.0216064453125 558.0682373046875 456.5240478515625 575.0364990234375 438.4373168945312 590.1654052734375 C 420.0113220214844 605.5780639648438 401.1012268066406 618.9718627929688 382.232421875 629.974853515625 C 362.7303161621094 641.34716796875 343.3152160644531 650.1351318359375 324.5264892578125 656.0947875976562 C 304.9042358398438 662.31884765625 285.8931274414062 665.4746704101562 268.021240234375 665.4746704101562 Z" stroke="none"/>
        <path d="M 439.9297790527344 -1.33648681640625 C 423.9952392578125 -1.33648681640625 407.7367858886719 -0.4786376953125 390.5237731933594 0.42950439453125 C 372.9908752441406 1.3544921875 354.8609619140625 2.31103515625 336.7705993652344 2.31103515625 C 301.6373291015625 2.31103515625 255.8008728027344 15.97161865234375 204.2165832519531 41.8157958984375 C 179.6572265625 54.1202392578125 154.3663330078125 68.90386962890625 129.0465087890625 85.7559814453125 C 103.7478637695312 102.593994140625 78.93341064453125 121.1552124023438 55.29241943359375 140.9242553710938 C 5.6917724609375 182.4011535644531 -36.2679443359375 227.1008911132812 -66.05078125 270.1910705566406 C -81.97998046875 293.2376098632812 -94.31011962890625 315.6727905273438 -102.6988525390625 336.8734130859375 C -107.0662231445312 347.910888671875 -110.4098510742188 358.7492370605469 -112.6367797851562 369.0876159667969 C -114.9313354492188 379.7394104003906 -116.0946655273438 390.1138916015625 -116.0946655273438 399.9228820800781 C -116.0946655273438 409.7515258789062 -115.1891479492188 419.634765625 -113.4031372070312 429.2982482910156 C -111.6680297851562 438.6860656738281 -109.0579223632812 448.1058959960938 -105.6453247070312 457.2962341308594 C -102.3300170898438 466.2244262695312 -98.17425537109375 475.1602478027344 -93.2933349609375 483.8554077148438 C -88.5513916015625 492.302978515625 -83.00830078125 500.7315979003906 -76.8182373046875 508.9071655273438 C -64.9317626953125 524.6060791015625 -50.3232421875 539.842041015625 -33.3983154296875 554.1919555664062 C -17.36611938476562 567.784912109375 0.864593505859375 580.6902465820312 20.78768920898438 592.54931640625 C 39.78195190429688 603.8555908203125 60.33868408203125 614.2300415039062 81.88677978515625 623.3847045898438 C 102.6627807617188 632.211181640625 124.2461242675781 639.85888671875 146.0373229980469 646.1153564453125 C 167.3865051269531 652.244873046875 188.6957702636719 656.9727172851562 209.3733215332031 660.1673583984375 C 230.0205078125 663.3572387695312 249.7525024414062 664.9746704101562 268.021240234375 664.9746704101562 C 285.841796875 664.9746704101562 304.8020629882812 661.8267211914062 324.3753051757812 655.6182250976562 C 343.1289672851562 649.669677734375 362.5101318359375 640.8966674804688 381.9804992675781 629.54296875 C 400.8251342773438 618.5540771484375 419.7120361328125 605.176513671875 438.1165771484375 589.7818603515625 C 456.1849670410156 574.6683349609375 473.6651306152344 557.7168579101562 490.0715942382812 539.3983154296875 C 523.2393188476562 502.365234375 551.102783203125 460.7562255859375 570.649658203125 419.0697937011719 C 580.772216796875 397.4821472167969 588.5951538085938 376.0250549316406 593.9009399414062 355.29443359375 C 599.4326782226562 333.6815185546875 602.2374877929688 312.8023376464844 602.2374877929688 293.2367858886719 C 602.2374877929688 276.4864196777344 601.6348876953125 256.4073181152344 600.5405883789062 236.6983337402344 C 599.20556640625 212.6530456542969 597.2125854492188 189.6489562988281 594.6170654296875 168.3249816894531 C 591.5511474609375 143.1372375488281 587.7189331054688 121.0535278320312 583.2269287109375 102.6871337890625 C 578.0511474609375 81.52508544921875 571.9879760742188 65.29168701171875 565.2057495117188 54.43804931640625 C 551.5838623046875 32.63897705078125 533.829345703125 17.79241943359375 510.9273986816406 9.0501708984375 C 500.8347778320312 5.197509765625 489.7744140625 2.50433349609375 477.114501953125 0.8167724609375 C 466.2451477050781 -0.63214111328125 454.0819702148438 -1.33648681640625 439.9297790527344 -1.33648681640625 M 439.9297485351562 -2.33648681640625 C 491.4866333007812 -2.33648681640625 536.609619140625 6.788330078125 566.0537719726562 53.90814208984375 C 595.2913208007812 100.6973266601562 603.2374877929688 232.1320495605469 603.2374877929688 293.2367858886719 C 603.2374877929688 454.462890625 415.1868591308594 665.9746704101562 268.021240234375 665.9746704101562 C 120.8556823730469 665.9746704101562 -117.0946655273438 561.1490478515625 -117.0946655273438 399.9228820800781 C -117.0946655273438 238.6966857910156 189.6050415039062 1.31103515625 336.7705993652344 1.31103515625 C 372.1685180664062 1.31103515625 407.3356323242188 -2.33648681640625 439.9297485351562 -2.33648681640625 Z" stroke="none" fill="#707070"/>
      </g>
      <path id="Path_3429" data-name="Path 3429" d="M334.5,0c109.735,0,65,189.709,126,280.734,41.687,62.208,246.154,102.838,246.154,186.475C706.651,673.211,519.239,746,334.5,746S0,579,0,373,149.761,0,334.5,0Z" transform="translate(1993.426 2466.617)" fill="#7da495"/>
      <path id="Path_3430" data-name="Path 3430" d="M716.452,188.813C995.429-738.3,1432.9,515.682,1432.9,918.895s-320.766,730.082-716.452,730.082S0,1322.108,0,918.895,437.474,1115.928,716.452,188.813Z" transform="translate(0 2200.93)" fill="#b9c7c4"/>
      <circle id="Ellipse_57" data-name="Ellipse 57" cx="5" cy="5" r="5" transform="translate(1652.688 2120.472)" fill="#bbbeb4"/>
      <circle id="Ellipse_58" data-name="Ellipse 58" cx="5" cy="5" r="5" transform="translate(1655.19 2068.91)" fill="#bbbeb4"/>
      <circle id="Ellipse_59" data-name="Ellipse 59" cx="5" cy="5" r="5" transform="translate(1671.202 2120.472)" fill="#bbbeb4"/>
      <ellipse id="Ellipse_60" data-name="Ellipse 60" cx="4" cy="3.5" rx="4" ry="3.5" transform="translate(1660.662 2100.18)" fill="#bbbeb4"/>
      <ellipse id="Ellipse_61" data-name="Ellipse 61" cx="4" cy="3.5" rx="4" ry="3.5" transform="translate(1674.18 2171.559)" fill="#bbbeb4"/>
      <ellipse id="Ellipse_62" data-name="Ellipse 62" cx="4" cy="3.5" rx="4" ry="3.5" transform="translate(1671.677 2048.629)" fill="#bbbeb4"/>
      <ellipse id="Ellipse_63" data-name="Ellipse 63" cx="4" cy="3.5" rx="4" ry="3.5" transform="translate(1662.664 2203.282)" fill="#bbbeb4"/>
      <ellipse id="Ellipse_64" data-name="Ellipse 64" cx="4" cy="3.5" rx="4" ry="3.5" transform="translate(1687.699 2072.423)" fill="#bbbeb4"/>
      <ellipse id="Ellipse_65" data-name="Ellipse 65" cx="4" cy="3.5" rx="4" ry="3.5" transform="translate(1693.206 2151.732)" fill="#bbbeb4"/>
      <ellipse id="Ellipse_66" data-name="Ellipse 66" cx="4" cy="3.5" rx="4" ry="3.5" transform="translate(1693.206 2208.57)" fill="#bbbeb4"/>
      <circle id="Ellipse_67" data-name="Ellipse 67" cx="5" cy="5" r="5" transform="translate(1816.277 556.818)" fill="#bbbeb4"/>
      <circle id="Ellipse_68" data-name="Ellipse 68" cx="5" cy="5" r="5" transform="translate(1787.794 657.989)" fill="#bbbeb4"/>
      <circle id="Ellipse_69" data-name="Ellipse 69" cx="5" cy="5" r="5" transform="translate(1798.769 689.818)" fill="#bbbeb4"/>
      <ellipse id="Ellipse_70" data-name="Ellipse 70" cx="4" cy="3.5" rx="4" ry="3.5" transform="translate(1792.842 681.989)" fill="#bbbeb4"/>
      <ellipse id="Ellipse_71" data-name="Ellipse 71" cx="4" cy="3.5" rx="4" ry="3.5" transform="translate(1837.78 595.818)" fill="#bbbeb4"/>
      <ellipse id="Ellipse_72" data-name="Ellipse 72" cx="4" cy="3.5" rx="4" ry="3.5" transform="translate(1803.857 642.989)" fill="#bbbeb4"/>
      <ellipse id="Ellipse_73" data-name="Ellipse 73" cx="4" cy="3.5" rx="4" ry="3.5" transform="translate(1826.101 619.818)" fill="#bbbeb4"/>
      <ellipse id="Ellipse_75" data-name="Ellipse 75" cx="4" cy="3.5" rx="4" ry="3.5" transform="translate(1825.887 946.234)" fill="#bbbeb4"/>
      <circle id="Ellipse_79" data-name="Ellipse 79" cx="5" cy="5" r="5" transform="translate(1635.674 542.989)" fill="#bbbeb4"/>
      <ellipse id="Ellipse_81" data-name="Ellipse 81" cx="4" cy="3.5" rx="4" ry="3.5" transform="translate(1639.132 581.989)" fill="#bbbeb4"/>
      <ellipse id="Ellipse_84" data-name="Ellipse 84" cx="4" cy="3.5" rx="4" ry="3.5" transform="translate(1652.15 506.989)" fill="#bbbeb4"/>
      <ellipse id="Ellipse_85" data-name="Ellipse 85" cx="4" cy="3.5" rx="4" ry="3.5" transform="translate(1657.657 566.989)" fill="#bbbeb4"/>
      <ellipse id="Ellipse_86" data-name="Ellipse 86" cx="4" cy="3.5" rx="4" ry="3.5" transform="translate(1657.657 609.989)" fill="#bbbeb4"/>
      <g id="Path_3432" data-name="Path 3432" transform="translate(1001.475 239.408)" fill="none">
        <path d="M147.8,0c22.3,0,71.262,9,92.347,24.167,31.52,22.664,31.646,59.163,37.458,96.88,4.259,27.644,0,53.441,0,79.9,0,85.36-112.958,162.461-194.585,162.461-74.363,0-131.044-79.517-131.84-162.461-.076-7.924,38.713-82.778,38.713-90.375C43.632,22.951,66.172,0,147.8,0Z" stroke="none"/>
        <path d="M 147.7995452880859 1.000030517578125 C 126.5676345825195 1.000030517578125 110.2618179321289 2.565521240234375 96.48408508300781 5.9267578125 C 89.26396179199219 7.688140869140625 82.74478149414062 9.933319091796875 76.55390930175781 12.79061889648438 C 70.36631774902344 15.64630126953125 64.61872863769531 19.06179809570312 58.98268127441406 23.23223876953125 C 48.23104858398438 31.18804931640625 37.92695617675781 41.89700317382812 26.5550537109375 56.93402099609375 C 21.35832214355469 63.80560302734375 15.81027221679688 71.74771118164062 9.593826293945312 81.21414184570312 C 4.227752685546875 89.38555908203125 -1.721786499023438 98.81527709960938 -9.120651245117188 110.8756866455078 C -9.230499267578125 112.3101959228516 -10.16960144042969 115.6810455322266 -15.084228515625 126.8071594238281 C -18.62991333007812 134.8341064453125 -23.46194458007812 145.1353759765625 -28.13494873046875 155.0975189208984 C -32.9864501953125 165.4402465820312 -38.00308227539062 176.1351013183594 -41.71881103515625 184.5691070556641 C -43.71566772460938 189.1016540527344 -45.179443359375 192.6186981201172 -46.1937255859375 195.3212432861328 C -47.54876708984375 198.9317016601562 -47.82669067382812 200.3692474365234 -47.82122802734375 200.9394683837891 C -47.7236328125 211.1071014404297 -46.77194213867188 221.4130554199219 -44.99264526367188 231.5710601806641 C -43.24676513671875 241.538330078125 -40.6912841796875 251.4394683837891 -37.39718627929688 260.9994812011719 C -34.133056640625 270.4725341796875 -30.12432861328125 279.6678466796875 -25.48236083984375 288.3299560546875 C -20.83358764648438 297.0048217773438 -15.52363586425781 305.1935119628906 -9.699951171875 312.6685180664062 C -3.806732177734375 320.2328491210938 2.65118408203125 327.115234375 9.494461059570312 333.12451171875 C 16.48426818847656 339.2625732421875 23.93637084960938 344.5414123535156 31.64363098144531 348.8145141601562 C 39.57731628417969 353.2131042480469 47.87164306640625 356.5946960449219 56.29618835449219 358.8653259277344 C 65.02191162109375 361.2171936035156 74.01258850097656 362.4096374511719 83.01846313476562 362.4096374511719 C 92.98545837402344 362.4096374511719 103.6148223876953 361.2460021972656 114.6112289428711 358.9511108398438 C 125.3610000610352 356.7076416015625 136.4254455566406 353.3921508789062 147.4972839355469 349.0966186523438 C 169.6331787109375 340.5086059570312 191.3524169921875 328.1650695800781 210.3069152832031 313.4004211425781 C 220.0181427001953 305.8358459472656 228.9402313232422 297.6883850097656 236.8254089355469 289.184326171875 C 244.9943237304688 280.3742370605469 252.0605010986328 271.16748046875 257.8276977539062 261.8196411132812 C 263.8521728515625 252.0547790527344 268.4984130859375 242.0677490234375 271.6372680664062 232.1360626220703 C 274.932861328125 221.7084197998047 276.6038818359375 211.2156066894531 276.6038818359375 200.9490661621094 C 276.6038818359375 192.1206512451172 277.084228515625 183.2233734130859 277.5487670898438 174.6190185546875 C 278.014404296875 165.9945220947266 278.4959106445312 157.0764312744141 278.4969177246094 148.1967468261719 C 278.498046875 138.2539215087891 277.8826293945312 129.4229278564453 276.6155395507812 121.1991577148438 C 275.7860107421875 115.8151092529297 275.06494140625 110.4022827148438 274.3676452636719 105.1677551269531 C 272.2324523925781 89.1392822265625 270.2156982421875 73.999755859375 265.35595703125 60.28848266601562 C 262.7628784179688 52.97219848632812 259.5840148925781 46.69631958007812 255.6376800537109 41.10223388671875 C 253.5105895996094 38.08697509765625 251.1208190917969 35.23284912109375 248.5348205566406 32.61920166015625 C 245.8286895751953 29.88418579101562 242.8099517822266 27.3134765625 239.5625 24.97842407226562 C 234.6548614501953 21.449462890625 227.9404602050781 18.06869506835938 219.6058654785156 14.92996215820312 C 212.1434173583984 12.1197509765625 203.5961303710938 9.576568603515625 194.2013702392578 7.37115478515625 C 185.7930908203125 5.39727783203125 176.9195556640625 3.759552001953125 168.5400390625 2.635009765625 C 160.5697631835938 1.56536865234375 153.3978271484375 1.000030517578125 147.7995452880859 1.000030517578125 M 147.7995452880859 3.0517578125e-05 C 170.1034088134766 3.0517578125e-05 219.0610504150391 9.004791259765625 240.1463165283203 24.16650390625 C 271.666015625 46.830322265625 271.7926940917969 83.3299560546875 277.6038818359375 121.046875 C 281.8632202148438 148.6905670166016 277.6038818359375 174.4875183105469 277.6038818359375 200.9490661621094 C 277.6038818359375 286.3089294433594 164.6458740234375 363.4096374511719 83.01846313476562 363.4096374511719 C 8.655868530273438 363.4096374511719 -48.02508544921875 283.8924255371094 -48.8211669921875 200.9490661621094 C -48.897216796875 193.0252380371094 -10.10859680175781 118.1707458496094 -10.10859680175781 110.5737457275391 C 43.63186645507812 22.95114135742188 66.17213439941406 3.0517578125e-05 147.7995452880859 3.0517578125e-05 Z" stroke="none" fill="#fff"/>
      </g>
      <g id="Group_466" data-name="Group 466" transform="translate(2483.161 0)">
        <path id="Path_3427" data-name="Path 3427" d="M328.522,0C430.1,0,432.608,258.535,456.181,445.2s-12.687,733.248-64.367,543.785S0,640.023,0,446.228,226.946,0,328.522,0Z" transform="translate(283.442 0) rotate(16)" fill="#213128"/>
        <path id="Path_3428" data-name="Path 3428" d="M377.106-182.559c-75.16-322.955,272.4,585.405,272.4,872.281s-145.4,519.436-324.752,519.436S0,976.6,0,689.722,452.266,140.4,377.106-182.559Z" transform="translate(49.647 901.052)" fill="#1d3029"/>
        <ellipse id="Ellipse_74" data-name="Ellipse 74" cx="4" cy="3.5" rx="4" ry="3.5" transform="translate(389.604 650.006)" fill="#bbbeb4"/>
        <g id="Path_3433" data-name="Path 3433" transform="translate(337.49 1588.154)" fill="none">
          <path d="M113,0c62.408,0,73.2,99.841,73.2,173.571S125.88,313.9,63.472,313.9,0,207.23,0,133.5,50.592,0,113,0Z" stroke="none"/>
          <path d="M 113.0000076293945 1 C 105.4121704101562 1 97.82913208007812 1.903106689453125 90.4615478515625 3.684234619140625 C 83.27954864501953 5.42047119140625 76.21437835693359 8.0115966796875 69.46229553222656 11.3856201171875 C 62.82921600341797 14.70016479492188 56.43067932128906 18.80337524414062 50.4444580078125 23.58126831054688 C 44.51155090332031 28.31661987304688 38.93183898925781 33.75564575195312 33.86021423339844 39.747314453125 C 28.78604125976562 45.74197387695312 24.17892456054688 52.33908081054688 20.16671752929688 59.35527038574219 C 16.11454772949219 66.44145202636719 12.63392639160156 74.01741027832031 9.82159423828125 81.87281799316406 C 6.956512451171875 89.87556457519531 4.755966186523438 98.250732421875 3.281082153320312 106.7657318115234 C 1.767471313476562 115.5045318603516 1 124.4992370605469 1 133.4999847412109 C 1 152.5442810058594 1.0880126953125 172.8055725097656 2.139923095703125 192.7391967773438 C 3.369583129882812 216.0421447753906 5.714462280273438 235.1412353515625 9.308425903320312 251.1278991699219 C 11.39500427246094 260.4093322753906 13.94508361816406 268.7363586425781 16.88796997070312 275.8777770996094 C 20.06646728515625 283.591064453125 23.80784606933594 290.1779479980469 28.00820922851562 295.4555358886719 C 30.2135009765625 298.2263488769531 32.59454345703125 300.6985778808594 35.08512878417969 302.8034057617188 C 37.65083312988281 304.9717407226562 40.40821838378906 306.8139038085938 43.28071594238281 308.2787780761719 C 46.24021911621094 309.7880249023438 49.40963745117188 310.9414978027344 52.70088195800781 311.7070617675781 C 56.09521484375 312.4966430664062 59.71904754638672 312.89697265625 63.47167205810547 312.89697265625 C 71.04033660888672 312.89697265625 78.75904846191406 311.8963928222656 86.41329956054688 309.9231262207031 C 93.85283660888672 308.0050964355469 101.2905044555664 305.1541442871094 108.5196762084961 301.4493713378906 C 115.6120910644531 297.8146667480469 122.5390014648438 293.3410339355469 129.1079711914062 288.1527099609375 C 135.6242065429688 283.0059814453125 141.8080902099609 277.1408081054688 147.4877166748047 270.7201232910156 C 153.1894226074219 264.2744445800781 158.3982086181641 257.2515563964844 162.9693756103516 249.8464965820312 C 167.6118469238281 242.3259429931641 171.6149291992188 234.3805236816406 174.8674163818359 226.2309417724609 C 178.204345703125 217.8699035644531 180.7727966308594 209.2374420166016 182.5014190673828 200.5733642578125 C 184.2891693115234 191.6128540039062 185.1956787109375 182.5279083251953 185.1956787109375 173.5708160400391 C 185.1956787109375 126.2411499023438 180.7711334228516 87.83872985839844 172.0449676513672 59.43028259277344 C 169.3488464355469 50.65283203125 166.2033843994141 42.74822998046875 162.6959686279297 35.93609619140625 C 158.9489593505859 28.65866088867188 154.6886749267578 22.43353271484375 150.0333862304688 17.43356323242188 C 145.0997924804688 12.13470458984375 139.5863342285156 8.06683349609375 133.6463012695312 5.343017578125 C 130.5490417480469 3.92279052734375 127.2691345214844 2.837432861328125 123.8976745605469 2.1171875 C 120.4276275634766 1.3758544921875 116.7611312866211 1 113.0000076293945 1 M 113.0000076293945 0 C 175.4081726074219 0 186.1956787109375 99.84077453613281 186.1956787109375 173.5708160400391 C 186.1956787109375 247.3008117675781 125.8798370361328 313.89697265625 63.47167205810547 313.89697265625 C 1.063507080078125 313.89697265625 0 207.2300262451172 0 133.4999847412109 C 0 59.76998901367188 50.59184265136719 0 113.0000076293945 0 Z" stroke="none" fill="#fff"/>
        </g>
        <ellipse id="Ellipse_94" data-name="Ellipse 94" cx="4" cy="3.5" rx="4" ry="3.5" transform="translate(389.604 756.006)" fill="#bbbeb4"/>
        <circle id="Ellipse_95" data-name="Ellipse 95" cx="4" cy="4" r="4" transform="translate(274.604 673.006)" fill="#bbbeb4"/>
        <ellipse id="Ellipse_96" data-name="Ellipse 96" cx="6.5" cy="6" rx="6.5" ry="6" transform="translate(417.604 667.006)" fill="#bbbeb4"/>
        <circle id="Ellipse_97" data-name="Ellipse 97" cx="3.5" cy="3.5" r="3.5" transform="translate(435.966 794.819) rotate(50)" fill="#bbbeb4"/>
        <path id="Path_3439" data-name="Path 3439" d="M4,0A3.91,3.91,0,0,1,8,3.814,3.91,3.91,0,0,1,4,7.627,3.91,3.91,0,0,1,0,3.814,3.91,3.91,0,0,1,4,0Z" transform="translate(257.63 773.193) rotate(50)" fill="#bbbeb4"/>
        <circle id="Ellipse_99" data-name="Ellipse 99" cx="4" cy="4" r="4" transform="translate(340.266 690.506) rotate(50)" fill="#bbbeb4"/>
        <ellipse id="Ellipse_100" data-name="Ellipse 100" cx="6.5" cy="6.482" rx="6.5" ry="6.482" transform="translate(471.949 707.901) rotate(50)" fill="#bbbeb4"/>
        <circle id="Ellipse_101" data-name="Ellipse 101" cx="4" cy="4" r="4" transform="translate(155.552 604.187)" fill="#bbbeb4"/>
        <ellipse id="Ellipse_102" data-name="Ellipse 102" cx="6.5" cy="6" rx="6.5" ry="6" transform="translate(310.293 599.187)" fill="#bbbeb4"/>
        <circle id="Ellipse_103" data-name="Ellipse 103" cx="3.5" cy="3.5" r="3.5" transform="translate(204.723 636) rotate(50)" fill="#bbbeb4"/>
        <path id="Path_3440" data-name="Path 3440" d="M4,0A3.91,3.91,0,0,1,8,3.814,3.91,3.91,0,0,1,4,7.627,3.91,3.91,0,0,1,0,3.814,3.91,3.91,0,0,1,4,0Z" transform="translate(136.12 658.374) rotate(50)" fill="#bbbeb4"/>
        <circle id="Ellipse_104" data-name="Ellipse 104" cx="4" cy="4" r="4" transform="translate(110.499 622.687) rotate(50)" fill="#bbbeb4"/>
        <ellipse id="Ellipse_105" data-name="Ellipse 105" cx="6.5" cy="6.482" rx="6.5" ry="6.482" transform="translate(216.648 654.714) rotate(50)" fill="#bbbeb4"/>
      </g>
      <g id="Path_3434" data-name="Path 3434" transform="translate(2022.775 3120.03)" fill="none">
        <path d="M524.865,247.921c252.153,0,188.793,70.716,188.793,249.778S508.6,762.338,256.45,762.338s-85.6-730.726-85.6-909.789S272.712,247.921,524.865,247.921Z" stroke="none"/>
        <path d="M 256.4497680664062 761.337646484375 C 287.9507141113281 761.337646484375 318.8873596191406 759.9841918945312 348.4006958007812 757.3148193359375 C 378.2020263671875 754.6195068359375 407.0257568359375 750.5393676757812 434.0712280273438 745.1876220703125 C 489.8356323242188 734.1529541015625 538.6449584960938 717.6990966796875 579.1434936523438 696.2828369140625 C 589.482421875 690.8154907226562 599.3885498046875 684.9555053710938 608.58642578125 678.8656616210938 C 617.9013671875 672.6984252929688 626.733642578125 666.1341552734375 634.8381958007812 659.35498046875 C 643.0513916015625 652.485107421875 650.7332153320312 645.213623046875 657.6705932617188 637.74267578125 C 664.7052612304688 630.1668090820312 671.1607055664062 622.1849975585938 676.8577880859375 614.0188598632812 C 682.63818359375 605.7330932617188 687.791748046875 597.0365600585938 692.1754760742188 588.1708374023438 C 696.6261596679688 579.1700439453125 700.402587890625 569.7532348632812 703.39990234375 560.1820068359375 C 706.444580078125 550.4596557617188 708.7675170898438 540.3157958984375 710.30419921875 530.0320434570312 C 711.8657836914062 519.5811157226562 712.6576538085938 508.7028503417969 712.6576538085938 497.6992492675781 C 712.6576538085938 464.1402893066406 714.8776245117188 434.4232482910156 716.836181640625 408.2044372558594 C 718.9512329101562 379.8921813964844 720.7777709960938 355.4408264160156 719.0662841796875 335.1061706542969 C 718.1676635742188 324.4289855957031 716.3445434570312 315.4408264160156 713.4928588867188 307.6282958984375 C 710.4027099609375 299.1624450683594 706.1045532226562 292.0343017578125 700.3527221679688 285.8367004394531 C 697.4073486328125 282.6632385253906 694.0181884765625 279.6909790039062 690.2791137695312 277.0027160644531 C 686.4611206054688 274.2576293945312 682.13427734375 271.7045593261719 677.4188232421875 269.4147033691406 C 672.6262817382812 267.0873718261719 667.2567138671875 264.9464416503906 661.459228515625 263.0512390136719 C 655.594970703125 261.1341552734375 649.0819091796875 259.3995056152344 642.100830078125 257.8956298828125 C 627.8729858398438 254.8304443359375 611.4923095703125 252.6168365478516 592.0228271484375 251.1283111572266 C 572.5944213867188 249.6428375244141 550.6268310546875 248.9208374023438 524.8645629882812 248.9208374023438 C 514.7999267578125 248.9208374023438 504.6800231933594 247.9941711425781 494.7860412597656 246.1664428710938 C 485.2142944335938 244.3983001708984 475.5909729003906 241.7384338378906 466.1833801269531 238.2605743408203 C 457.1025695800781 234.9036407470703 447.9728393554688 230.6920318603516 439.0479125976562 225.7431030273438 C 430.4529724121094 220.9770965576172 421.8110961914062 215.3957672119141 413.3623046875 209.1541748046875 C 405.2464294433594 203.1585693359375 397.084716796875 196.3881683349609 389.1039123535156 189.0309753417969 C 381.4596252441406 181.9841766357422 373.7698974609375 174.2040405273438 366.248291015625 165.9068298339844 C 359.0684509277344 157.9867095947266 351.8425598144531 149.3755035400391 344.771240234375 140.3124389648438 C 338.0492248535156 131.6972351074219 331.2792358398438 122.4329681396484 324.6493835449219 112.7771072387695 C 312.4964294433594 95.07777404785156 300.2947082519531 75.3016357421875 288.3831176757812 53.99843597412109 C 278.0757751464844 35.56443786621094 267.6111145019531 15.31030368804932 257.27978515625 -6.201562881469727 C 238.2317657470703 -45.86302947998047 222.5339050292969 -83.61103057861328 209.9204406738281 -113.9419631958008 C 201.6180419921875 -133.9063568115234 194.4477691650391 -151.1483612060547 188.7604370117188 -162.9770355224609 C 185.7868347167969 -169.1618347167969 183.3424377441406 -173.6190338134766 181.2875061035156 -176.6035614013672 C 178.6289672851562 -180.4644927978516 177.162841796875 -181.0410308837891 176.5253753662109 -181.0410308837891 C 175.9674987792969 -181.0410308837891 175.4245758056641 -180.545166015625 174.9119110107422 -179.5670318603516 C 174.2500305175781 -178.3044891357422 173.6879119873047 -176.3085021972656 173.2408447265625 -173.6344909667969 C 172.3052368164062 -168.0363616943359 171.8503112792969 -159.4716949462891 171.8503112792969 -147.4508972167969 C 171.8503112792969 -128.5736999511719 170.0373687744141 -102.6295623779297 166.1448364257812 -65.80289459228516 C 162.6390991210938 -32.63516235351562 157.7556304931641 6.407103538513184 152.5852355957031 47.74163818359375 C 145.3839111328125 105.3139038085938 137.2216339111328 170.5677642822266 130.6848449707031 236.5841674804688 C 123.1639022827148 312.53857421875 119.0492401123047 376.9240417480469 118.1057739257812 433.4196472167969 C 117.5539016723633 466.4680480957031 118.1079025268555 497.3072509765625 119.75244140625 525.0804443359375 C 120.6284408569336 539.8743286132812 121.8339080810547 554.1500244140625 123.3351058959961 567.51123046875 C 124.8933715820312 581.3790893554688 126.8164367675781 594.6724243164062 129.0509643554688 607.0219116210938 C 131.3636322021484 619.8035278320312 134.0777740478516 631.9490966796875 137.1179046630859 643.1213989257812 C 140.2565765380859 654.655517578125 143.8340454101562 665.4879150390625 147.7509765625 675.317626953125 C 151.7855072021484 685.4424438476562 156.2968444824219 694.7965698242188 161.1596374511719 703.1200561523438 C 166.1578979492188 711.6753540039062 171.671630859375 719.3885498046875 177.5475006103516 726.0452270507812 C 182.5581665039062 731.7216186523438 187.9640350341797 736.7792358398438 193.6150970458984 741.07763671875 C 199.3857727050781 745.4669799804688 205.5781707763672 749.1909790039062 212.0203094482422 752.1460571289062 C 218.5991058349609 755.1638793945312 225.628173828125 757.4669799804688 232.9121704101562 758.9913940429688 C 240.3516387939453 760.5481567382812 248.2708435058594 761.337646484375 256.4497680664062 761.337646484375 M 256.4497680664062 762.337646484375 C 4.296971321105957 762.337646484375 170.8503112792969 31.61150360107422 170.8503112792969 -147.4508972167969 C 170.8503112792969 -171.5932769775391 172.703369140625 -182.0410003662109 176.525390625 -182.0410003662109 C 201.051025390625 -182.0410003662109 306.7086791992188 247.9208374023438 524.8645629882812 247.9208374023438 C 777.0172119140625 247.9208374023438 713.6576538085938 318.63671875 713.6576538085938 497.6992492675781 C 713.6576538085938 676.7617797851562 508.6024475097656 762.337646484375 256.4497680664062 762.337646484375 Z" stroke="none" fill="#fff"/>
      </g>
      <circle id="Ellipse_87" data-name="Ellipse 87" cx="5" cy="5" r="5" transform="translate(1789.795 3179.482)" fill="#1d3029"/>
      <circle id="Ellipse_88" data-name="Ellipse 88" cx="5" cy="5" r="5" transform="translate(1792.297 3043.304)" fill="#1d3029"/>
      <circle id="Ellipse_89" data-name="Ellipse 89" cx="5" cy="5" r="5" transform="translate(1839.334 3179.482)" fill="#1d3029"/>
      <ellipse id="Ellipse_90" data-name="Ellipse 90" cx="4" cy="3.5" rx="4" ry="3.5" transform="translate(1810.366 3133.842)" fill="#1d3029"/>
      <ellipse id="Ellipse_91" data-name="Ellipse 91" cx="4" cy="3.5" rx="4" ry="3.5" transform="translate(1847.417 3288.494)" fill="#1d3029"/>
      <ellipse id="Ellipse_92" data-name="Ellipse 92" cx="4" cy="3.5" rx="4" ry="3.5" transform="translate(1839.406 3022.809)" fill="#1d3029"/>
      <ellipse id="Ellipse_93" data-name="Ellipse 93" cx="4" cy="3.5" rx="4" ry="3.5" transform="translate(1815.373 3613.906)" fill="#1d3029"/>
      <g id="Path_3443" data-name="Path 3443" transform="translate(2088.077 2883.489)" fill="#bf6e1c">
        <path d="M 88.88665008544922 263.7107238769531 C 69.17344665527344 263.7107238769531 46.59769821166992 261.1082153320312 23.59999847412109 256.1845092773438 C -0.243600994348526 251.0797119140625 -23.41815185546875 243.6891174316406 -43.41825103759766 234.8116760253906 C -54.07744979858398 230.0803680419922 -63.83095169067383 224.9318695068359 -72.40789794921875 219.5092163085938 C -81.45995330810547 213.7861175537109 -89.27239990234375 207.7104187011719 -95.62815093994141 201.4508666992188 C -109.5405044555664 187.7491149902344 -116.5946502685547 173.16357421875 -116.5946502685547 158.0994262695312 C -116.5946502685547 150.4051666259766 -114.191047668457 141.9741668701172 -109.4506530761719 133.0405731201172 C -104.9692535400391 124.5950698852539 -98.38030242919922 115.6556701660156 -89.86679840087891 106.4707183837891 C -73.94004821777344 89.28766632080078 -51.4995002746582 71.46157073974609 -24.97105026245117 54.91951751708984 C -12.32525062561035 47.03411865234375 0.9483990073204041 39.63036727905273 14.48119926452637 32.91386795043945 C 28.02649879455566 26.19126892089844 41.55664825439453 20.29361915588379 54.69585037231445 15.38486862182617 C 82.30455017089844 5.070269107818604 106.8427505493164 -0.3817310929298401 125.6576461791992 -0.3817310929298401 C 135.3291473388672 -0.3817310929298401 145.0238037109375 -0.7631310820579529 154.3992462158203 -1.131981134414673 C 163.6078491210938 -1.494281053543091 172.3057556152344 -1.836481094360352 180.8327026367188 -1.836481094360352 C 188.4092559814453 -1.836481094360352 194.9217987060547 -1.555231094360352 200.7424011230469 -0.9766311049461365 C 207.5253448486328 -0.3024310767650604 213.4517059326172 0.7737188935279846 218.8600921630859 2.313218832015991 C 231.122802734375 5.803769111633301 240.6244049072266 11.72561931610107 247.9076995849609 20.41711807250977 C 251.5243988037109 24.73301887512207 254.7586059570312 31.19106864929199 257.5205383300781 39.61191940307617 C 259.9201049804688 46.9278678894043 261.9674072265625 55.72602081298828 263.6055908203125 65.76197052001953 C 264.9929504394531 74.26107025146484 266.0581970214844 83.43012237548828 266.7717895507812 93.01441955566406 C 267.3567504882812 100.8702697753906 267.6788635253906 108.8732223510742 267.6788635253906 115.5490188598633 C 267.6788635253906 123.3304672241211 266.1821899414062 131.6365203857422 263.2304077148438 140.2364654541016 C 260.3966979980469 148.4924163818359 256.2178955078125 157.0390625 250.8101043701172 165.6390686035156 C 240.3610992431641 182.2558746337891 225.4642486572266 198.8437194824219 207.7299499511719 213.6092224121094 C 189.9433441162109 228.4182739257812 169.9490051269531 240.8520660400391 149.9084014892578 249.5664215087891 C 139.4877471923828 254.0976715087891 129.1137542724609 257.5992126464844 119.0745468139648 259.9737548828125 C 108.5909957885742 262.4534301757812 98.43429565429688 263.7107238769531 88.88665008544922 263.7107238769531 Z" stroke="none"/>
        <path d="M 180.8327941894531 -1.33648681640625 C 172.3157043457031 -1.33648681640625 163.6224975585938 -0.994476318359375 154.4188995361328 -0.63238525390625 C 145.0386047363281 -0.263336181640625 135.3389434814453 0.1182708740234375 125.6576461791992 0.1182708740234375 C 106.9018478393555 0.1182708740234375 82.42420196533203 5.559326171875 54.87079620361328 15.85322570800781 C 41.74769592285156 20.75601196289062 28.23345184326172 26.64671325683594 14.70350646972656 33.36177062988281 C 1.185104370117188 40.07107543945312 -12.07435607910156 47.4669189453125 -24.70649719238281 55.34376525878906 C -51.19779968261719 71.86271667480469 -73.60310363769531 89.65966796875 -89.50010681152344 106.8106231689453 C -97.98414611816406 115.9638214111328 -104.5478515625 124.8677215576172 -109.0090026855469 133.2749633789062 C -113.710693359375 142.1355590820312 -116.0946655273438 150.4877624511719 -116.0946655273438 158.0994262695312 C -116.0946655273438 173.024658203125 -109.0906982421875 187.4903259277344 -95.27729797363281 201.0946197509766 C -88.94694519042969 207.3291625976562 -81.16264343261719 213.3825225830078 -72.14070129394531 219.0865783691406 C -63.58430480957031 224.4962768554688 -53.85240173339844 229.6332244873047 -43.21540832519531 234.3546142578125 C -23.24635314941406 243.21826171875 -0.105743408203125 250.5978698730469 23.70469665527344 255.6955718994141 C 46.66850280761719 260.6119689941406 69.20804595947266 263.2106628417969 88.88665008544922 263.2106628417969 C 98.39559936523438 263.2106628417969 108.5135498046875 261.9578552246094 118.9594497680664 259.4871215820312 C 128.9698486328125 257.1194152832031 139.3155059814453 253.6273193359375 149.7090454101562 249.1078186035156 C 169.7066955566406 240.4121704101562 189.6593475341797 228.0040740966797 207.4100036621094 213.2249755859375 C 225.1044006347656 198.4927215576172 239.9654998779297 181.9457092285156 250.3868103027344 165.3728637695312 C 255.7742004394531 156.8054656982422 259.9363098144531 148.2937164306641 262.7575073242188 140.0741577148438 C 265.6912841796875 131.5265655517578 267.1788330078125 123.2751159667969 267.1788330078125 115.5490264892578 C 267.1788330078125 108.8852233886719 266.8572082519531 100.8954620361328 266.273193359375 93.051513671875 C 265.5606994628906 83.48171997070312 264.4971313476562 74.3272705078125 263.1121520996094 65.84251403808594 C 261.4780883789062 55.83201599121094 259.43701171875 47.05917358398438 257.0454406738281 39.76771545410156 C 254.3034515380859 31.40762329101562 251.10009765625 25.00517272949219 247.5245056152344 20.73826599121094 C 240.3075561523438 12.12596130371094 230.8865509033203 6.256362915039062 218.7232971191406 2.794113159179688 C 213.3437957763672 1.2628173828125 207.446044921875 0.192169189453125 200.6929931640625 -0.4790802001953125 C 194.8890533447266 -1.0560302734375 188.3927001953125 -1.33648681640625 180.8327941894531 -1.33648681640625 M 180.8328247070312 -2.336502075195312 C 208.4082794189453 -2.336502075195312 232.5425720214844 1.302810668945312 248.2909545898438 20.09596252441406 C 263.9288024902344 38.75721740722656 268.1788330078125 91.17822265625 268.1788330078125 115.5490264892578 C 268.1788330078125 179.8519592285156 167.5989532470703 264.2106628417969 88.88665008544922 264.2106628417969 C 10.17439270019531 264.2106628417969 -117.0946655273438 222.4023742675781 -117.0946655273438 158.0994262695312 C -117.0946655273438 93.79646301269531 46.94535064697266 -0.8817291259765625 125.6576461791992 -0.8817291259765625 C 144.5904083251953 -0.8817291259765625 163.3996734619141 -2.336502075195312 180.8328247070312 -2.336502075195312 Z" stroke="none" fill="#707070"/>
      </g>
      <g id="Path_3444" data-name="Path 3444" transform="translate(1987.017 904.99)" fill="#bf6e1c">
        <path d="M 268.021240234375 665.4746704101562 C 249.72705078125 665.4746704101562 229.9694061279297 663.855224609375 209.2970428466797 660.6614379882812 C 188.5987701416016 657.463623046875 167.2686767578125 652.7312622070312 145.8994140625 646.595947265625 C 124.0885925292969 640.3338623046875 102.4858627319336 632.6793212890625 81.69132232666016 623.8448486328125 C 60.12250137329102 614.6815185546875 39.54550170898438 604.2966918945312 20.53195571899414 592.9789428710938 C 0.5851383805274963 581.105712890625 -17.66840744018555 568.1841430664062 -33.7216796875 554.5733032226562 C -50.67440795898438 540.1997680664062 -65.30831909179688 524.9369506835938 -77.21685791015625 509.2089538574219 C -83.42067718505859 501.0153198242188 -88.976318359375 492.5675048828125 -93.72931671142578 484.1001586914062 C -98.62295532226562 475.38232421875 -102.7897720336914 466.4227905273438 -106.1141357421875 457.4703369140625 C -109.5367736816406 448.2529602050781 -112.1544952392578 438.8051452636719 -113.8947677612305 429.38916015625 C -115.6863174438477 419.69580078125 -116.5946807861328 409.7818908691406 -116.5946807861328 399.9228820800781 C -116.5946807861328 390.07861328125 -115.4274978637695 379.668701171875 -113.1255874633789 368.9823303222656 C -110.8928604125977 358.6172485351562 -107.5412216186523 347.7523193359375 -103.1638641357422 336.6894226074219 C -94.76103973388672 315.4535217285156 -82.41286468505859 292.984619140625 -66.46204376220703 269.9067993164062 C -36.65404510498047 226.7800598144531 5.337047576904297 182.0459747314453 54.97159194946289 140.5406951904297 C 78.62659454345703 120.7600631713867 103.4557723999023 102.1877899169922 128.7695007324219 85.33979034423828 C 154.1063232421875 68.47633361816406 179.4150543212891 53.68242263793945 203.9926910400391 41.3687858581543 C 255.6460418701172 15.48987770080566 301.5599670410156 1.811059951782227 336.7705993652344 1.811059951782227 C 354.8478698730469 1.811059951782227 372.9710388183594 0.8548780679702759 390.4974975585938 -0.06984918564558029 C 407.7172241210938 -0.9783037304878235 423.9820556640625 -1.836485505104065 439.9296875 -1.836485505104065 C 454.1042175292969 -1.836485505104065 466.2890625 -1.130667328834534 477.1805114746094 0.3211508095264435 C 489.8794250488281 2.013968944549561 500.9764099121094 4.716423511505127 511.1056823730469 8.583060264587402 C 534.1131591796875 17.3656063079834 551.9480590820312 32.27824020385742 565.6297607421875 54.17324066162109 C 572.4402465820312 65.07205963134766 578.5241088867188 81.35451507568359 583.7125854492188 102.5684204101562 C 588.2093505859375 120.9538803100586 592.045166015625 143.0572357177734 595.1134033203125 168.2646026611328 C 597.7103271484375 189.5994262695312 599.7042236328125 212.6145172119141 601.0398559570312 236.6706085205078 C 602.1345825195312 256.3886108398438 602.7374877929688 276.4775085449219 602.7374877929688 293.2367858886719 C 602.7374877929688 312.8441467285156 599.9274291992188 333.7650451660156 594.3854370117188 355.4184265136719 C 589.07177734375 376.1793212890625 581.2382202148438 397.6661376953125 571.1024169921875 419.2821655273438 C 551.5350341796875 461.0121459960938 523.6438598632812 502.6629638671875 490.4440612792969 539.7319946289062 C 474.0216064453125 558.0682373046875 456.5240478515625 575.0364990234375 438.4373168945312 590.1654052734375 C 420.0113220214844 605.5780639648438 401.1012268066406 618.9718627929688 382.232421875 629.974853515625 C 362.7303161621094 641.34716796875 343.3152160644531 650.1351318359375 324.5264892578125 656.0947875976562 C 304.9042358398438 662.31884765625 285.8931274414062 665.4746704101562 268.021240234375 665.4746704101562 Z" stroke="none"/>
        <path d="M 439.9297790527344 -1.33648681640625 C 423.9952392578125 -1.33648681640625 407.7367858886719 -0.4786376953125 390.5237731933594 0.42950439453125 C 372.9908752441406 1.3544921875 354.8609619140625 2.31103515625 336.7705993652344 2.31103515625 C 301.6373291015625 2.31103515625 255.8008728027344 15.97161865234375 204.2165832519531 41.8157958984375 C 179.6572265625 54.1202392578125 154.3663330078125 68.90386962890625 129.0465087890625 85.7559814453125 C 103.7478637695312 102.593994140625 78.93341064453125 121.1552124023438 55.29241943359375 140.9242553710938 C 5.6917724609375 182.4011535644531 -36.2679443359375 227.1008911132812 -66.05078125 270.1910705566406 C -81.97998046875 293.2376098632812 -94.31011962890625 315.6727905273438 -102.6988525390625 336.8734130859375 C -107.0662231445312 347.910888671875 -110.4098510742188 358.7492370605469 -112.6367797851562 369.0876159667969 C -114.9313354492188 379.7394104003906 -116.0946655273438 390.1138916015625 -116.0946655273438 399.9228820800781 C -116.0946655273438 409.7515258789062 -115.1891479492188 419.634765625 -113.4031372070312 429.2982482910156 C -111.6680297851562 438.6860656738281 -109.0579223632812 448.1058959960938 -105.6453247070312 457.2962341308594 C -102.3300170898438 466.2244262695312 -98.17425537109375 475.1602478027344 -93.2933349609375 483.8554077148438 C -88.5513916015625 492.302978515625 -83.00830078125 500.7315979003906 -76.8182373046875 508.9071655273438 C -64.9317626953125 524.6060791015625 -50.3232421875 539.842041015625 -33.3983154296875 554.1919555664062 C -17.36611938476562 567.784912109375 0.864593505859375 580.6902465820312 20.78768920898438 592.54931640625 C 39.78195190429688 603.8555908203125 60.33868408203125 614.2300415039062 81.88677978515625 623.3847045898438 C 102.6627807617188 632.211181640625 124.2461242675781 639.85888671875 146.0373229980469 646.1153564453125 C 167.3865051269531 652.244873046875 188.6957702636719 656.9727172851562 209.3733215332031 660.1673583984375 C 230.0205078125 663.3572387695312 249.7525024414062 664.9746704101562 268.021240234375 664.9746704101562 C 285.841796875 664.9746704101562 304.8020629882812 661.8267211914062 324.3753051757812 655.6182250976562 C 343.1289672851562 649.669677734375 362.5101318359375 640.8966674804688 381.9804992675781 629.54296875 C 400.8251342773438 618.5540771484375 419.7120361328125 605.176513671875 438.1165771484375 589.7818603515625 C 456.1849670410156 574.6683349609375 473.6651306152344 557.7168579101562 490.0715942382812 539.3983154296875 C 523.2393188476562 502.365234375 551.102783203125 460.7562255859375 570.649658203125 419.0697937011719 C 580.772216796875 397.4821472167969 588.5951538085938 376.0250549316406 593.9009399414062 355.29443359375 C 599.4326782226562 333.6815185546875 602.2374877929688 312.8023376464844 602.2374877929688 293.2367858886719 C 602.2374877929688 276.4864196777344 601.6348876953125 256.4073181152344 600.5405883789062 236.6983337402344 C 599.20556640625 212.6530456542969 597.2125854492188 189.6489562988281 594.6170654296875 168.3249816894531 C 591.5511474609375 143.1372375488281 587.7189331054688 121.0535278320312 583.2269287109375 102.6871337890625 C 578.0511474609375 81.52508544921875 571.9879760742188 65.29168701171875 565.2057495117188 54.43804931640625 C 551.5838623046875 32.63897705078125 533.829345703125 17.79241943359375 510.9273986816406 9.0501708984375 C 500.8347778320312 5.197509765625 489.7744140625 2.50433349609375 477.114501953125 0.8167724609375 C 466.2451477050781 -0.63214111328125 454.0819702148438 -1.33648681640625 439.9297790527344 -1.33648681640625 M 439.9297485351562 -2.33648681640625 C 491.4866333007812 -2.33648681640625 536.609619140625 6.788330078125 566.0537719726562 53.90814208984375 C 595.2913208007812 100.6973266601562 603.2374877929688 232.1320495605469 603.2374877929688 293.2367858886719 C 603.2374877929688 454.462890625 415.1868591308594 665.9746704101562 268.021240234375 665.9746704101562 C 120.8556823730469 665.9746704101562 -117.0946655273438 561.1490478515625 -117.0946655273438 399.9228820800781 C -117.0946655273438 238.6966857910156 189.6050415039062 1.31103515625 336.7705993652344 1.31103515625 C 372.1685180664062 1.31103515625 407.3356323242188 -2.33648681640625 439.9297485351562 -2.33648681640625 Z" stroke="none" fill="#707070"/>
      </g>
      <g id="Path_3445" data-name="Path 3445" transform="translate(2219.602 1055.105)" fill="none">
        <path d="M147.8,0c22.3,0,71.262,9,92.347,24.167,31.52,22.664,31.646,59.163,37.458,96.88,4.259,27.644,0,53.441,0,79.9,0,85.36-112.958,162.461-194.585,162.461-74.363,0-131.044-79.517-131.84-162.461-.076-7.924,38.713-82.778,38.713-90.375C43.632,22.951,66.172,0,147.8,0Z" stroke="none"/>
        <path d="M 147.7995452880859 1.000030517578125 C 126.5676345825195 1.000030517578125 110.2618179321289 2.565521240234375 96.48408508300781 5.9267578125 C 89.26396179199219 7.688140869140625 82.74478149414062 9.933319091796875 76.55390930175781 12.79061889648438 C 70.36631774902344 15.64630126953125 64.61872863769531 19.06179809570312 58.98268127441406 23.23223876953125 C 48.23104858398438 31.18804931640625 37.92695617675781 41.89700317382812 26.5550537109375 56.93402099609375 C 21.35832214355469 63.80560302734375 15.81027221679688 71.74771118164062 9.593826293945312 81.21414184570312 C 4.227752685546875 89.38555908203125 -1.721786499023438 98.81527709960938 -9.120651245117188 110.8756866455078 C -9.230499267578125 112.3101959228516 -10.16960144042969 115.6810455322266 -15.084228515625 126.8071594238281 C -18.62991333007812 134.8341064453125 -23.46194458007812 145.1353759765625 -28.13494873046875 155.0975189208984 C -32.9864501953125 165.4402465820312 -38.00308227539062 176.1351013183594 -41.71881103515625 184.5691070556641 C -43.71566772460938 189.1016540527344 -45.179443359375 192.6186981201172 -46.1937255859375 195.3212432861328 C -47.54876708984375 198.9317016601562 -47.82669067382812 200.3692474365234 -47.82122802734375 200.9394683837891 C -47.7236328125 211.1071014404297 -46.77194213867188 221.4130554199219 -44.99264526367188 231.5710601806641 C -43.24676513671875 241.538330078125 -40.6912841796875 251.4394683837891 -37.39718627929688 260.9994812011719 C -34.133056640625 270.4725341796875 -30.12432861328125 279.6678466796875 -25.48236083984375 288.3299560546875 C -20.83358764648438 297.0048217773438 -15.52363586425781 305.1935119628906 -9.699951171875 312.6685180664062 C -3.806732177734375 320.2328491210938 2.65118408203125 327.115234375 9.494461059570312 333.12451171875 C 16.48426818847656 339.2625732421875 23.93637084960938 344.5414123535156 31.64363098144531 348.8145141601562 C 39.57731628417969 353.2131042480469 47.87164306640625 356.5946960449219 56.29618835449219 358.8653259277344 C 65.02191162109375 361.2171936035156 74.01258850097656 362.4096374511719 83.01846313476562 362.4096374511719 C 92.98545837402344 362.4096374511719 103.6148223876953 361.2460021972656 114.6112289428711 358.9511108398438 C 125.3610000610352 356.7076416015625 136.4254455566406 353.3921508789062 147.4972839355469 349.0966186523438 C 169.6331787109375 340.5086059570312 191.3524169921875 328.1650695800781 210.3069152832031 313.4004211425781 C 220.0181427001953 305.8358459472656 228.9402313232422 297.6883850097656 236.8254089355469 289.184326171875 C 244.9943237304688 280.3742370605469 252.0605010986328 271.16748046875 257.8276977539062 261.8196411132812 C 263.8521728515625 252.0547790527344 268.4984130859375 242.0677490234375 271.6372680664062 232.1360626220703 C 274.932861328125 221.7084197998047 276.6038818359375 211.2156066894531 276.6038818359375 200.9490661621094 C 276.6038818359375 192.1206512451172 277.084228515625 183.2233734130859 277.5487670898438 174.6190185546875 C 278.014404296875 165.9945220947266 278.4959106445312 157.0764312744141 278.4969177246094 148.1967468261719 C 278.498046875 138.2539215087891 277.8826293945312 129.4229278564453 276.6155395507812 121.1991577148438 C 275.7860107421875 115.8151092529297 275.06494140625 110.4022827148438 274.3676452636719 105.1677551269531 C 272.2324523925781 89.1392822265625 270.2156982421875 73.999755859375 265.35595703125 60.28848266601562 C 262.7628784179688 52.97219848632812 259.5840148925781 46.69631958007812 255.6376800537109 41.10223388671875 C 253.5105895996094 38.08697509765625 251.1208190917969 35.23284912109375 248.5348205566406 32.61920166015625 C 245.8286895751953 29.88418579101562 242.8099517822266 27.3134765625 239.5625 24.97842407226562 C 234.6548614501953 21.449462890625 227.9404602050781 18.06869506835938 219.6058654785156 14.92996215820312 C 212.1434173583984 12.1197509765625 203.5961303710938 9.576568603515625 194.2013702392578 7.37115478515625 C 185.7930908203125 5.39727783203125 176.9195556640625 3.759552001953125 168.5400390625 2.635009765625 C 160.5697631835938 1.56536865234375 153.3978271484375 1.000030517578125 147.7995452880859 1.000030517578125 M 147.7995452880859 3.0517578125e-05 C 170.1034088134766 3.0517578125e-05 219.0610504150391 9.004791259765625 240.1463165283203 24.16650390625 C 271.666015625 46.830322265625 271.7926940917969 83.3299560546875 277.6038818359375 121.046875 C 281.8632202148438 148.6905670166016 277.6038818359375 174.4875183105469 277.6038818359375 200.9490661621094 C 277.6038818359375 286.3089294433594 164.6458740234375 363.4096374511719 83.01846313476562 363.4096374511719 C 8.655868530273438 363.4096374511719 -48.02508544921875 283.8924255371094 -48.8211669921875 200.9490661621094 C -48.897216796875 193.0252380371094 -10.10859680175781 118.1707458496094 -10.10859680175781 110.5737457275391 C 43.63186645507812 22.95114135742188 66.17213439941406 3.0517578125e-05 147.7995452880859 3.0517578125e-05 Z" stroke="none" fill="#fff"/>
      </g>
      <g id="Path_3446" data-name="Path 3446" transform="matrix(-0.602, -0.799, 0.799, -0.602, 1295.236, 4419.794)" fill="none">
        <path d="M407.968,429.962c252.153,0,188.793,70.716,188.793,249.778S391.706,944.379,139.553,944.379s-85.6-730.726-85.6-909.789S155.815,429.962,407.968,429.962Z" stroke="none"/>
        <path d="M 139.5534057617188 943.3787231445312 C 171.0543365478516 943.3787231445312 201.9910125732422 942.0252685546875 231.5043487548828 939.3558959960938 C 261.3056640625 936.6605834960938 290.12939453125 932.5804443359375 317.1748657226562 927.2285766601562 C 372.9392700195312 916.1940307617188 421.7485961914062 899.7400512695312 462.2471313476562 878.3239135742188 C 472.5860900878906 872.8564453125 482.4922180175781 866.9964599609375 491.6900634765625 860.90673828125 C 501.0050048828125 854.7393798828125 509.8372802734375 848.1751098632812 517.9418334960938 841.3960571289062 C 526.155029296875 834.5260620117188 533.8368530273438 827.2545776367188 540.7742309570312 819.7836303710938 C 547.8088989257812 812.207763671875 554.2643432617188 804.2259521484375 559.96142578125 796.059814453125 C 565.7418212890625 787.7740478515625 570.8953857421875 779.0775146484375 575.2791137695312 770.2119140625 C 579.7297973632812 761.2109985351562 583.5062255859375 751.794189453125 586.5035400390625 742.2229614257812 C 589.5482177734375 732.500732421875 591.8711547851562 722.3567504882812 593.4078369140625 712.072998046875 C 594.9694213867188 701.6220703125 595.7612915039062 690.7437744140625 595.7612915039062 679.7401733398438 C 595.7612915039062 646.1812744140625 597.9812622070312 616.4641723632812 599.9398193359375 590.245361328125 C 602.0548706054688 561.93310546875 603.8814086914062 537.48193359375 602.169921875 517.1472778320312 C 601.2713012695312 506.4700622558594 599.4481811523438 497.48193359375 596.5964965820312 489.6694030761719 C 593.50634765625 481.2035217285156 589.2081909179688 474.0753784179688 583.4563598632812 467.8777770996094 C 580.510986328125 464.7043151855469 577.121826171875 461.7320556640625 573.3827514648438 459.0437927246094 C 569.5647583007812 456.2987365722656 565.2379150390625 453.7456665039062 560.5224609375 451.4557800292969 C 555.7299194335938 449.1284484863281 550.3603515625 446.9875183105469 544.5628662109375 445.0923156738281 C 538.6986083984375 443.1752624511719 532.185546875 441.4405822753906 525.2044677734375 439.9367370605469 C 510.9766235351562 436.8715209960938 494.595947265625 434.6579284667969 475.12646484375 433.1694030761719 C 455.6980895996094 431.6839294433594 433.73046875 430.9619140625 407.9682006835938 430.9619140625 C 397.9035339355469 430.9619140625 387.7836608886719 430.0352478027344 377.8896789550781 428.20751953125 C 368.3179321289062 426.4393920898438 358.6946105957031 423.7795104980469 349.2870178222656 420.3016662597656 C 340.2062072753906 416.9447326660156 331.0764770507812 412.7331237792969 322.1515502929688 407.7841796875 C 313.5566101074219 403.0181884765625 304.9147338867188 397.4368591308594 296.4659423828125 391.1952514648438 C 288.3500671386719 385.1996459960938 280.1883544921875 378.4292602539062 272.2075500488281 371.0720520019531 C 264.5632629394531 364.0252685546875 256.87353515625 356.2451171875 249.3519439697266 347.9479370117188 C 242.1720733642578 340.0278015136719 234.9462127685547 331.4165954589844 227.8748779296875 322.353515625 C 221.1528778076172 313.7381896972656 214.3828735351562 304.4740600585938 207.7530059814453 294.8182067871094 C 195.6000823974609 277.1187133789062 183.3983459472656 257.3427124023438 171.4867401123047 236.0393981933594 C 161.1794128417969 217.6055297851562 150.7147369384766 197.3512573242188 140.3834075927734 175.8393859863281 C 121.3354110717773 136.1779174804688 105.6375427246094 98.43006134033203 93.02407836914062 68.09912872314453 C 84.72167205810547 48.13459014892578 77.55140686035156 30.89259147644043 71.86407470703125 19.06392478942871 C 68.89047241210938 12.87912464141846 66.44607543945312 8.421924591064453 64.39114379882812 5.437391757965088 C 61.73260879516602 1.576458334922791 60.26647567749023 0.9999250173568726 59.62900924682617 0.9999250173568726 C 59.07114028930664 0.9999250173568726 58.5282096862793 1.495791673660278 58.01554107666016 2.473925113677979 C 57.35367584228516 3.736458301544189 56.79154205322266 5.732458114624023 56.34447479248047 8.406457901000977 C 55.40887451171875 14.0045919418335 54.95394134521484 22.56925773620605 54.95394134521484 34.59005737304688 C 54.95394134521484 53.46725845336914 53.14101028442383 79.41139221191406 49.24847412109375 116.2380599975586 C 45.74274063110352 149.4057922363281 40.85927581787109 188.4480590820312 35.68887710571289 229.7827301025391 C 28.4875431060791 287.35498046875 20.32527542114258 352.6088562011719 13.78847599029541 418.625244140625 C 6.267542362213135 494.5796508789062 2.152875423431396 558.9651489257812 1.20940887928009 615.4608764648438 C 0.6575421690940857 648.5091552734375 1.211542129516602 679.3483276367188 2.856075525283813 707.1216430664062 C 3.732075452804565 721.9154052734375 4.937541961669922 736.1911010742188 6.438742160797119 749.5523071289062 C 7.997008800506592 763.420166015625 9.920075416564941 776.7135009765625 12.15460872650146 789.06298828125 C 14.46727561950684 801.8446044921875 17.1814079284668 813.9901733398438 20.22154235839844 825.1624755859375 C 23.36020851135254 836.6965942382812 26.93767547607422 847.5289916992188 30.8546085357666 857.3587036132812 C 34.88914108276367 867.4835205078125 39.40047454833984 876.837646484375 44.26327514648438 885.1611328125 C 49.26154327392578 893.7164306640625 54.77527618408203 901.4296875 60.65114212036133 908.0863037109375 C 65.66181182861328 913.7626953125 71.06767272949219 918.8203125 76.71874237060547 923.1187133789062 C 82.48941040039062 927.508056640625 88.68180847167969 931.2320556640625 95.12393951416016 934.1871337890625 C 101.7027435302734 937.2050170898438 108.7318115234375 939.508056640625 116.0158081054688 941.032470703125 C 123.4552764892578 942.5892333984375 131.3744812011719 943.3787231445312 139.5534057617188 943.3787231445312 M 139.5534057617188 944.3787231445312 C -112.5993881225586 944.3787231445312 53.95394134521484 213.652587890625 53.95394134521484 34.59005737304688 C 53.95394134521484 10.44767284393311 55.8070068359375 -3.385416493983939e-05 59.62902450561523 -3.385416493983939e-05 C 84.15465545654297 -3.385416493983939e-05 189.8123321533203 429.9619140625 407.9682006835938 429.9619140625 C 660.120849609375 429.9619140625 596.7612915039062 500.6777954101562 596.7612915039062 679.7401733398438 C 596.7612915039062 858.802734375 391.7060852050781 944.3787231445312 139.5534057617188 944.3787231445312 Z" stroke="none" fill="#fff"/>
      </g>
      <g id="Path_3447" data-name="Path 3447" transform="translate(233.316 917.426) rotate(-60)" fill="none">
        <path d="M407.968,429.962c252.153,0,188.793,70.716,188.793,249.778S391.706,944.379,139.553,944.379s-85.6-730.726-85.6-909.789S155.815,429.962,407.968,429.962Z" stroke="none"/>
        <path d="M 139.5534057617188 943.3787231445312 C 171.0543365478516 943.3787231445312 201.9910125732422 942.0252685546875 231.5043487548828 939.3558959960938 C 261.3056640625 936.6605834960938 290.12939453125 932.5804443359375 317.1748657226562 927.2285766601562 C 372.9392700195312 916.1940307617188 421.7485961914062 899.7400512695312 462.2471313476562 878.3239135742188 C 472.5860900878906 872.8564453125 482.4922180175781 866.9964599609375 491.6900634765625 860.90673828125 C 501.0050048828125 854.7393798828125 509.8372802734375 848.1751098632812 517.9418334960938 841.3960571289062 C 526.155029296875 834.5260620117188 533.8368530273438 827.2545776367188 540.7742309570312 819.7836303710938 C 547.8088989257812 812.207763671875 554.2643432617188 804.2259521484375 559.96142578125 796.059814453125 C 565.7418212890625 787.7740478515625 570.8953857421875 779.0775146484375 575.2791137695312 770.2119140625 C 579.7297973632812 761.2109985351562 583.5062255859375 751.794189453125 586.5035400390625 742.2229614257812 C 589.5482177734375 732.500732421875 591.8711547851562 722.3567504882812 593.4078369140625 712.072998046875 C 594.9694213867188 701.6220703125 595.7612915039062 690.7437744140625 595.7612915039062 679.7401733398438 C 595.7612915039062 646.1812744140625 597.9812622070312 616.4641723632812 599.9398193359375 590.245361328125 C 602.0548706054688 561.93310546875 603.8814086914062 537.48193359375 602.169921875 517.1472778320312 C 601.2713012695312 506.4700622558594 599.4481811523438 497.48193359375 596.5964965820312 489.6694030761719 C 593.50634765625 481.2035217285156 589.2081909179688 474.0753784179688 583.4563598632812 467.8777770996094 C 580.510986328125 464.7043151855469 577.121826171875 461.7320556640625 573.3827514648438 459.0437927246094 C 569.5647583007812 456.2987365722656 565.2379150390625 453.7456665039062 560.5224609375 451.4557800292969 C 555.7299194335938 449.1284484863281 550.3603515625 446.9875183105469 544.5628662109375 445.0923156738281 C 538.6986083984375 443.1752624511719 532.185546875 441.4405822753906 525.2044677734375 439.9367370605469 C 510.9766235351562 436.8715209960938 494.595947265625 434.6579284667969 475.12646484375 433.1694030761719 C 455.6980895996094 431.6839294433594 433.73046875 430.9619140625 407.9682006835938 430.9619140625 C 397.9035339355469 430.9619140625 387.7836608886719 430.0352478027344 377.8896789550781 428.20751953125 C 368.3179321289062 426.4393920898438 358.6946105957031 423.7795104980469 349.2870178222656 420.3016662597656 C 340.2062072753906 416.9447326660156 331.0764770507812 412.7331237792969 322.1515502929688 407.7841796875 C 313.5566101074219 403.0181884765625 304.9147338867188 397.4368591308594 296.4659423828125 391.1952514648438 C 288.3500671386719 385.1996459960938 280.1883544921875 378.4292602539062 272.2075500488281 371.0720520019531 C 264.5632629394531 364.0252685546875 256.87353515625 356.2451171875 249.3519439697266 347.9479370117188 C 242.1720733642578 340.0278015136719 234.9462127685547 331.4165954589844 227.8748779296875 322.353515625 C 221.1528778076172 313.7381896972656 214.3828735351562 304.4740600585938 207.7530059814453 294.8182067871094 C 195.6000823974609 277.1187133789062 183.3983459472656 257.3427124023438 171.4867401123047 236.0393981933594 C 161.1794128417969 217.6055297851562 150.7147369384766 197.3512573242188 140.3834075927734 175.8393859863281 C 121.3354110717773 136.1779174804688 105.6375427246094 98.43006134033203 93.02407836914062 68.09912872314453 C 84.72167205810547 48.13459014892578 77.55140686035156 30.89259147644043 71.86407470703125 19.06392478942871 C 68.89047241210938 12.87912464141846 66.44607543945312 8.421924591064453 64.39114379882812 5.437391757965088 C 61.73260879516602 1.576458334922791 60.26647567749023 0.9999250173568726 59.62900924682617 0.9999250173568726 C 59.07114028930664 0.9999250173568726 58.5282096862793 1.495791673660278 58.01554107666016 2.473925113677979 C 57.35367584228516 3.736458301544189 56.79154205322266 5.732458114624023 56.34447479248047 8.406457901000977 C 55.40887451171875 14.0045919418335 54.95394134521484 22.56925773620605 54.95394134521484 34.59005737304688 C 54.95394134521484 53.46725845336914 53.14101028442383 79.41139221191406 49.24847412109375 116.2380599975586 C 45.74274063110352 149.4057922363281 40.85927581787109 188.4480590820312 35.68887710571289 229.7827301025391 C 28.4875431060791 287.35498046875 20.32527542114258 352.6088562011719 13.78847599029541 418.625244140625 C 6.267542362213135 494.5796508789062 2.152875423431396 558.9651489257812 1.20940887928009 615.4608764648438 C 0.6575421690940857 648.5091552734375 1.211542129516602 679.3483276367188 2.856075525283813 707.1216430664062 C 3.732075452804565 721.9154052734375 4.937541961669922 736.1911010742188 6.438742160797119 749.5523071289062 C 7.997008800506592 763.420166015625 9.920075416564941 776.7135009765625 12.15460872650146 789.06298828125 C 14.46727561950684 801.8446044921875 17.1814079284668 813.9901733398438 20.22154235839844 825.1624755859375 C 23.36020851135254 836.6965942382812 26.93767547607422 847.5289916992188 30.8546085357666 857.3587036132812 C 34.88914108276367 867.4835205078125 39.40047454833984 876.837646484375 44.26327514648438 885.1611328125 C 49.26154327392578 893.7164306640625 54.77527618408203 901.4296875 60.65114212036133 908.0863037109375 C 65.66181182861328 913.7626953125 71.06767272949219 918.8203125 76.71874237060547 923.1187133789062 C 82.48941040039062 927.508056640625 88.68180847167969 931.2320556640625 95.12393951416016 934.1871337890625 C 101.7027435302734 937.2050170898438 108.7318115234375 939.508056640625 116.0158081054688 941.032470703125 C 123.4552764892578 942.5892333984375 131.3744812011719 943.3787231445312 139.5534057617188 943.3787231445312 M 139.5534057617188 944.3787231445312 C -112.5993881225586 944.3787231445312 53.95394134521484 213.652587890625 53.95394134521484 34.59005737304688 C 53.95394134521484 10.44767284393311 55.8070068359375 -3.385416493983939e-05 59.62902450561523 -3.385416493983939e-05 C 84.15465545654297 -3.385416493983939e-05 189.8123321533203 429.9619140625 407.9682006835938 429.9619140625 C 660.120849609375 429.9619140625 596.7612915039062 500.6777954101562 596.7612915039062 679.7401733398438 C 596.7612915039062 858.802734375 391.7060852050781 944.3787231445312 139.5534057617188 944.3787231445312 Z" stroke="none" fill="#fff"/>
      </g>
      <g id="Path_3448" data-name="Path 3448" transform="translate(2022.775 3120.03)" fill="none">
        <path d="M524.865,247.921c252.153,0,188.793,70.716,188.793,249.778S508.6,762.338,256.45,762.338s-85.6-730.726-85.6-909.789S272.712,247.921,524.865,247.921Z" stroke="none"/>
        <path d="M 256.4497680664062 761.337646484375 C 287.9507141113281 761.337646484375 318.8873596191406 759.9841918945312 348.4006958007812 757.3148193359375 C 378.2020263671875 754.6195068359375 407.0257568359375 750.5393676757812 434.0712280273438 745.1876220703125 C 489.8356323242188 734.1529541015625 538.6449584960938 717.6990966796875 579.1434936523438 696.2828369140625 C 589.482421875 690.8154907226562 599.3885498046875 684.9555053710938 608.58642578125 678.8656616210938 C 617.9013671875 672.6984252929688 626.733642578125 666.1341552734375 634.8381958007812 659.35498046875 C 643.0513916015625 652.485107421875 650.7332153320312 645.213623046875 657.6705932617188 637.74267578125 C 664.7052612304688 630.1668090820312 671.1607055664062 622.1849975585938 676.8577880859375 614.0188598632812 C 682.63818359375 605.7330932617188 687.791748046875 597.0365600585938 692.1754760742188 588.1708374023438 C 696.6261596679688 579.1700439453125 700.402587890625 569.7532348632812 703.39990234375 560.1820068359375 C 706.444580078125 550.4596557617188 708.7675170898438 540.3157958984375 710.30419921875 530.0320434570312 C 711.8657836914062 519.5811157226562 712.6576538085938 508.7028503417969 712.6576538085938 497.6992492675781 C 712.6576538085938 464.1402893066406 714.8776245117188 434.4232482910156 716.836181640625 408.2044372558594 C 718.9512329101562 379.8921813964844 720.7777709960938 355.4408264160156 719.0662841796875 335.1061706542969 C 718.1676635742188 324.4289855957031 716.3445434570312 315.4408264160156 713.4928588867188 307.6282958984375 C 710.4027099609375 299.1624450683594 706.1045532226562 292.0343017578125 700.3527221679688 285.8367004394531 C 697.4073486328125 282.6632385253906 694.0181884765625 279.6909790039062 690.2791137695312 277.0027160644531 C 686.4611206054688 274.2576293945312 682.13427734375 271.7045593261719 677.4188232421875 269.4147033691406 C 672.6262817382812 267.0873718261719 667.2567138671875 264.9464416503906 661.459228515625 263.0512390136719 C 655.594970703125 261.1341552734375 649.0819091796875 259.3995056152344 642.100830078125 257.8956298828125 C 627.8729858398438 254.8304443359375 611.4923095703125 252.6168365478516 592.0228271484375 251.1283111572266 C 572.5944213867188 249.6428375244141 550.6268310546875 248.9208374023438 524.8645629882812 248.9208374023438 C 514.7999267578125 248.9208374023438 504.6800231933594 247.9941711425781 494.7860412597656 246.1664428710938 C 485.2142944335938 244.3983001708984 475.5909729003906 241.7384338378906 466.1833801269531 238.2605743408203 C 457.1025695800781 234.9036407470703 447.9728393554688 230.6920318603516 439.0479125976562 225.7431030273438 C 430.4529724121094 220.9770965576172 421.8110961914062 215.3957672119141 413.3623046875 209.1541748046875 C 405.2464294433594 203.1585693359375 397.084716796875 196.3881683349609 389.1039123535156 189.0309753417969 C 381.4596252441406 181.9841766357422 373.7698974609375 174.2040405273438 366.248291015625 165.9068298339844 C 359.0684509277344 157.9867095947266 351.8425598144531 149.3755035400391 344.771240234375 140.3124389648438 C 338.0492248535156 131.6972351074219 331.2792358398438 122.4329681396484 324.6493835449219 112.7771072387695 C 312.4964294433594 95.07777404785156 300.2947082519531 75.3016357421875 288.3831176757812 53.99843597412109 C 278.0757751464844 35.56443786621094 267.6111145019531 15.31030368804932 257.27978515625 -6.201562881469727 C 238.2317657470703 -45.86302947998047 222.5339050292969 -83.61103057861328 209.9204406738281 -113.9419631958008 C 201.6180419921875 -133.9063568115234 194.4477691650391 -151.1483612060547 188.7604370117188 -162.9770355224609 C 185.7868347167969 -169.1618347167969 183.3424377441406 -173.6190338134766 181.2875061035156 -176.6035614013672 C 178.6289672851562 -180.4644927978516 177.162841796875 -181.0410308837891 176.5253753662109 -181.0410308837891 C 175.9674987792969 -181.0410308837891 175.4245758056641 -180.545166015625 174.9119110107422 -179.5670318603516 C 174.2500305175781 -178.3044891357422 173.6879119873047 -176.3085021972656 173.2408447265625 -173.6344909667969 C 172.3052368164062 -168.0363616943359 171.8503112792969 -159.4716949462891 171.8503112792969 -147.4508972167969 C 171.8503112792969 -128.5736999511719 170.0373687744141 -102.6295623779297 166.1448364257812 -65.80289459228516 C 162.6390991210938 -32.63516235351562 157.7556304931641 6.407103538513184 152.5852355957031 47.74163818359375 C 145.3839111328125 105.3139038085938 137.2216339111328 170.5677642822266 130.6848449707031 236.5841674804688 C 123.1639022827148 312.53857421875 119.0492401123047 376.9240417480469 118.1057739257812 433.4196472167969 C 117.5539016723633 466.4680480957031 118.1079025268555 497.3072509765625 119.75244140625 525.0804443359375 C 120.6284408569336 539.8743286132812 121.8339080810547 554.1500244140625 123.3351058959961 567.51123046875 C 124.8933715820312 581.3790893554688 126.8164367675781 594.6724243164062 129.0509643554688 607.0219116210938 C 131.3636322021484 619.8035278320312 134.0777740478516 631.9490966796875 137.1179046630859 643.1213989257812 C 140.2565765380859 654.655517578125 143.8340454101562 665.4879150390625 147.7509765625 675.317626953125 C 151.7855072021484 685.4424438476562 156.2968444824219 694.7965698242188 161.1596374511719 703.1200561523438 C 166.1578979492188 711.6753540039062 171.671630859375 719.3885498046875 177.5475006103516 726.0452270507812 C 182.5581665039062 731.7216186523438 187.9640350341797 736.7792358398438 193.6150970458984 741.07763671875 C 199.3857727050781 745.4669799804688 205.5781707763672 749.1909790039062 212.0203094482422 752.1460571289062 C 218.5991058349609 755.1638793945312 225.628173828125 757.4669799804688 232.9121704101562 758.9913940429688 C 240.3516387939453 760.5481567382812 248.2708435058594 761.337646484375 256.4497680664062 761.337646484375 M 256.4497680664062 762.337646484375 C 4.296971321105957 762.337646484375 170.8503112792969 31.61150360107422 170.8503112792969 -147.4508972167969 C 170.8503112792969 -171.5932769775391 172.703369140625 -182.0410003662109 176.525390625 -182.0410003662109 C 201.051025390625 -182.0410003662109 306.7086791992188 247.9208374023438 524.8645629882812 247.9208374023438 C 777.0172119140625 247.9208374023438 713.6576538085938 318.63671875 713.6576538085938 497.6992492675781 C 713.6576538085938 676.7617797851562 508.6024475097656 762.337646484375 256.4497680664062 762.337646484375 Z" stroke="none" fill="#fff"/>
      </g>
      <g id="Path_3449" data-name="Path 3449" transform="translate(2071.949 1143.03)" fill="none">
        <path d="M1296-207.849c339.554,0-375.5,735.819-375.5,989.748s-276.132,375.284-615.686,375.284S628.441,98.66,628.441-155.269,956.448-207.849,1296-207.849Z" stroke="none"/>
        <path d="M 757.2999267578125 -282.5789794921875 C 747.1817626953125 -282.5789794921875 737.64990234375 -282.0810546875 728.9688720703125 -281.0989990234375 C 719.9134521484375 -280.0745849609375 711.4361572265625 -278.48486328125 703.7728271484375 -276.3734130859375 C 695.8382568359375 -274.1875610351562 688.4876098632812 -271.3635864257812 681.925537109375 -267.9802856445312 C 675.1665649414062 -264.4954833984375 669.0067749023438 -260.2950439453125 663.6170043945312 -255.4956665039062 C 658.0819702148438 -250.5673217773438 653.1688842773438 -244.8381958007812 649.0140991210938 -238.467529296875 C 644.755126953125 -231.9373779296875 641.1503295898438 -224.5150756835938 638.29931640625 -216.406494140625 C 635.3840942382812 -208.1144409179688 633.1619873046875 -198.8352661132812 631.6953125 -188.8262939453125 C 630.19970703125 -178.6204833984375 629.4413452148438 -167.330078125 629.4413452148438 -155.2686157226562 C 629.4413452148438 -143.9160766601562 628.0955200195312 -130.530029296875 625.4413452148438 -115.4825439453125 C 622.906982421875 -101.1138305664062 619.0909423828125 -84.7296142578125 614.0993041992188 -66.7850341796875 C 604.854736328125 -33.55279541015625 591.482421875 5.70599365234375 573.218505859375 53.2347412109375 C 539.1490478515625 141.89306640625 493.541748046875 245.0609741210938 445.2568359375 354.2861938476562 C 411.0128173828125 431.7491149902344 375.603271484375 511.84912109375 343.10986328125 589.6383056640625 C 325.5673828125 631.6353759765625 310.4671630859375 669.1234741210938 296.9461669921875 704.2445068359375 C 281.706787109375 743.8295288085938 268.9036865234375 779.2749633789062 257.804931640625 812.60595703125 C 251.9302978515625 830.2484741210938 246.5274658203125 847.3578491210938 241.746337890625 863.4591064453125 C 236.7740478515625 880.2041015625 232.3165283203125 896.3899536132812 228.4976806640625 911.5670166015625 C 224.5411376953125 927.2903442382812 221.147216796875 942.4191284179688 218.409912109375 956.5328369140625 C 215.5830078125 971.1078491210938 213.3701171875 985.0453491210938 211.8328857421875 997.9580688476562 C 210.24951171875 1011.255737304688 209.3349609375 1023.866821289062 209.1141357421875 1035.44140625 C 208.887451171875 1047.330078125 209.385986328125 1058.478759765625 210.595947265625 1068.57763671875 C 211.835693359375 1078.924560546875 213.85888671875 1088.474365234375 216.609130859375 1096.96142578125 C 219.420166015625 1105.636840820312 223.073486328125 1113.456420898438 227.4671630859375 1120.203125 C 231.25390625 1126.016845703125 235.6929931640625 1131.191650390625 240.66162109375 1135.583251953125 C 245.7220458984375 1140.055908203125 251.4805908203125 1143.848510742188 257.7774658203125 1146.855346679688 C 264.1973876953125 1149.921020507812 271.36474609375 1152.259765625 279.0799560546875 1153.806640625 C 286.9444580078125 1155.38330078125 295.6053466796875 1156.182861328125 304.82177734375 1156.182861328125 C 347.2503662109375 1156.182861328125 388.9193115234375 1154.263061523438 428.67138671875 1150.47705078125 C 448.648681640625 1148.574096679688 468.4691162109375 1146.166381835938 487.5823974609375 1143.320556640625 C 506.8173828125 1140.45654296875 525.822021484375 1137.07666015625 544.0679931640625 1133.274536132812 C 619.1909790039062 1117.6201171875 684.9473876953125 1094.276000976562 739.510986328125 1063.890625 C 753.4434814453125 1056.1318359375 766.7926025390625 1047.815795898438 779.1880493164062 1039.17333984375 C 791.742431640625 1030.419921875 803.6467895507812 1021.102844238281 814.5707397460938 1011.480590820312 C 825.6423950195312 1001.727844238281 835.9984741210938 991.4047241210938 845.3509521484375 980.7982788085938 C 854.836181640625 970.041015625 863.540771484375 958.70703125 871.2228393554688 947.1109619140625 C 879.0184326171875 935.343505859375 885.9688720703125 922.9922485351562 891.88134765625 910.400390625 C 897.88427734375 897.6156005859375 902.97802734375 884.2399291992188 907.0209350585938 870.6447143554688 C 911.1276245117188 856.834716796875 914.260986328125 842.4262084960938 916.3334350585938 827.819091796875 C 918.439697265625 812.9759521484375 919.5076293945312 797.5261840820312 919.5076293945312 781.89892578125 C 919.5076293945312 775.4382934570312 919.9759521484375 768.5014038085938 920.89990234375 761.28076171875 C 921.802001953125 754.2301635742188 923.1644897460938 746.7039184570312 924.94970703125 738.9107666015625 C 928.3832397460938 723.9212036132812 933.5413818359375 707.2572021484375 940.280517578125 689.381591796875 C 946.6426391601562 672.5062255859375 954.6376342773438 653.9601440429688 964.0432739257812 634.2586669921875 C 972.8245239257812 615.86474609375 983.1715698242188 595.7618408203125 994.7974243164062 574.5084838867188 C 1005.614501953125 554.7328491210938 1017.491394042969 533.9947509765625 1031.1064453125 511.109130859375 C 1043.226318359375 490.7363891601562 1056.4501953125 469.1264038085938 1071.533935546875 445.0439147949219 C 1099.537231445312 400.3336791992188 1129.764282226562 353.8326416015625 1158.996337890625 308.8628540039062 C 1191.439086914062 258.9532775878906 1224.986572265625 207.3442993164062 1255.087036132812 158.7791137695312 C 1271.279663085938 132.6535034179688 1285.247192382812 109.4111938476562 1297.788208007812 87.72430419921875 C 1311.850952148438 63.40533447265625 1323.783203125 41.63287353515625 1334.266967773438 21.162841796875 C 1345.5107421875 -0.79132080078125 1355.019287109375 -21.20819091796875 1362.528442382812 -39.520263671875 C 1366.48486328125 -49.1688232421875 1369.992797851562 -58.48858642578125 1372.954711914062 -67.22088623046875 C 1376.004638671875 -76.21319580078125 1378.570556640625 -84.861083984375 1380.580322265625 -92.9244384765625 C 1382.64404296875 -101.203369140625 1384.184936523438 -109.1185913085938 1385.160278320312 -116.4500732421875 C 1386.158935546875 -123.9567260742188 1386.594482421875 -131.0771484375 1386.455322265625 -137.6138305664062 C 1386.313232421875 -144.28857421875 1385.5673828125 -150.5531616210938 1384.238647460938 -156.2342529296875 C 1382.884765625 -162.0227661132812 1380.884887695312 -167.3775634765625 1378.295166015625 -172.1500854492188 C 1375.268920898438 -177.7265014648438 1371.337158203125 -182.6902465820312 1366.609497070312 -186.9036254882812 C 1361.767822265625 -191.2183837890625 1355.942626953125 -194.8790283203125 1349.295776367188 -197.7835693359375 C 1342.486328125 -200.759033203125 1334.61279296875 -203.030029296875 1325.893676757812 -204.532958984375 C 1316.980712890625 -206.0694580078125 1306.92431640625 -206.8485717773438 1296.003173828125 -206.8485717773438 C 1281.783203125 -206.8485717773438 1267.03173828125 -207.2083740234375 1252.15869140625 -207.918212890625 C 1238.056762695312 -208.5911254882812 1223.402221679688 -209.599853515625 1208.60205078125 -210.91650390625 C 1181.472900390625 -213.329833984375 1153.458862304688 -216.7708740234375 1122.959106445312 -221.4360961914062 C 1097.802978515625 -225.2839965820312 1070.7607421875 -230.0096435546875 1040.28662109375 -235.8831787109375 C 1013.360961914062 -241.07275390625 987.1480102539062 -246.4931640625 961.7980346679688 -251.7350463867188 C 922.3092651367188 -259.9006958007812 885.0105590820312 -267.6134033203125 850.6582641601562 -273.28466796875 C 832.2978515625 -276.31591796875 816.2059326171875 -278.531494140625 801.4628295898438 -280.058349609375 C 785.0863647460938 -281.754638671875 770.6405639648438 -282.5789794921875 757.2999267578125 -282.5789794921875 M 757.2999267578125 -283.5789794921875 C 883.8574829101562 -283.5789794921875 1087.73974609375 -207.8485717773438 1296.003173828125 -207.8485717773438 C 1635.557250976562 -207.8485717773438 920.5076293945312 527.9703369140625 920.5076293945312 781.89892578125 C 920.5076293945312 1035.82763671875 644.3759765625 1157.182861328125 304.82177734375 1157.182861328125 C -34.732421875 1157.182861328125 628.4413452148438 98.659912109375 628.4413452148438 -155.2686157226562 C 628.4413452148438 -253.4520263671875 677.5166625976562 -283.5789794921875 757.2999267578125 -283.5789794921875 Z" stroke="none" fill="#fff"/>
      </g>
      <circle id="Ellipse_106" data-name="Ellipse 106" cx="5" cy="5" r="5" transform="matrix(0.574, -0.819, 0.819, 0.574, 1236.401, 1675.085)" fill="#1d3029" opacity="0.693"/>
      <circle id="Ellipse_107" data-name="Ellipse 107" cx="5" cy="5" r="5" transform="matrix(0.574, -0.819, 0.819, 0.574, 1155.338, 1540.74)" fill="#1d3029" opacity="0.693"/>
      <circle id="Ellipse_108" data-name="Ellipse 108" cx="5" cy="5" r="5" transform="matrix(0.574, -0.819, 0.819, 0.574, 1280.972, 1552.182)" fill="#1d3029" opacity="0.693"/>
      <ellipse id="Ellipse_109" data-name="Ellipse 109" cx="4" cy="3.5" rx="4" ry="3.5" transform="matrix(0.574, -0.819, 0.819, 0.574, 1219.303, 1578.137)" fill="#1d3029" opacity="0.693"/>
      <ellipse id="Ellipse_110" data-name="Ellipse 110" cx="4" cy="3.5" rx="4" ry="3.5" transform="matrix(0.574, -0.819, 0.819, 0.574, 1369.842, 1650.829)" fill="#1d3029" opacity="0.693"/>
      <ellipse id="Ellipse_111" data-name="Ellipse 111" cx="4" cy="3.5" rx="4" ry="3.5" transform="matrix(0.574, -0.819, 0.819, 0.574, 1159.491, 1390.885)" fill="#1d3029" opacity="0.693"/>
      <ellipse id="Ellipse_112" data-name="Ellipse 112" cx="4" cy="3.5" rx="4" ry="3.5" transform="matrix(0.574, -0.819, 0.819, 0.574, 1395.499, 1796.783)" fill="#1d3029" opacity="0.693"/>
      <ellipse id="Ellipse_113" data-name="Ellipse 113" cx="4" cy="3.5" rx="4" ry="3.5" transform="matrix(0.574, -0.819, 0.819, 0.574, 1236.779, 1340.434)" fill="#1d3029" opacity="0.693"/>
      <ellipse id="Ellipse_114" data-name="Ellipse 114" cx="4" cy="3.5" rx="4" ry="3.5" transform="matrix(0.574, -0.819, 0.819, 0.574, 1381.651, 1482.897)" fill="#1d3029" opacity="0.693"/>
      <ellipse id="Ellipse_115" data-name="Ellipse 115" cx="4" cy="3.5" rx="4" ry="3.5" transform="matrix(0.574, -0.819, 0.819, 0.574, 1476.185, 1610.593)" fill="#1d3029" opacity="0.693"/>
    </g>
  </g>
</svg>

