<svg xmlns="http://www.w3.org/2000/svg" width="67.455" height="67.455" viewBox="0 0 67.455 67.455">
  <g id="_icons" transform="matrix(0, 1, -1, 0, 69.455, -2)">
    <g id="Component_30_2" data-name="Component 30 – 2" transform="translate(2 2)">
      <path id="Path_3423" data-name="Path 3423" d="M69.455,35.727a33.4,33.4,0,1,1-9.781-23.946A33.827,33.827,0,0,1,69.455,35.727Z" transform="translate(-2 -2)" fill="#bf6e1c"/>
      <path id="Path_3424" data-name="Path 3424" d="M21.491,26.864a3.062,3.062,0,0,1-2.361-1.012L9.012,15.734a3.339,3.339,0,0,1,4.722-4.722l7.757,7.757,7.757-7.757a3.339,3.339,0,0,1,4.722,4.722L23.852,25.852A3.062,3.062,0,0,1,21.491,26.864Z" transform="translate(12.236 16.982)" fill="#fff"/>
      <path id="Path_3425" data-name="Path 3425" d="M62.574,28.846A33.866,33.866,0,0,1,4.9,52.793L23.113,34.58l4.722-4.722L52.793,4.9A33.62,33.62,0,0,1,62.574,28.846Z" transform="translate(4.881 4.881)" fill="#fcf2f2" opacity="0.1"/>
    </g>
  </g>
</svg>



